<svg id="Layer_5" enable-background="new 0 0 64 64" height="512" viewBox="0 0 64 64" width="512"
     xmlns="http://www.w3.org/2000/svg">
    <g>
        <g>
            <g>
                <path d="m58 2h-52c-2.21 0-4 1.79-4 4v36c0 2.21 1.79 4 4 4h52c2.21 0 4-1.79 4-4v-36c0-2.21-1.79-4-4-4z"
                      fill="#aab2bd"/>
            </g>
            <g>
                <path d="m57 6h-50c-.55 0-1 .45-1 1v30c0 .55.45 1 1 1h50c.55 0 1-.45 1-1v-30c0-.55-.45-1-1-1z"
                      fill="#69d6f4"/>
            </g>
            <g>
                <circle cx="12" cy="28" fill="#fcd770" r="2"/>
            </g>
            <g>
                <path d="m14 10-1 12h-2l-1-12z" fill="#fcd770"/>
            </g>
            <g>
                <path d="m22 29h1.26c-.8 1.13-1.26 2.51-1.26 4s.46 2.87 1.26 4h-1.26c-1.1 0-2.1-.45-2.83-1.17-.72-.73-1.17-1.73-1.17-2.83 0-2.21 1.79-4 4-4z"
                      fill="#e6e9ed"/>
            </g>
            <g>
                <path d="m44.83 30.17c.72.73 1.17 1.73 1.17 2.83 0 2.21-1.79 4-4 4h-1.26c.8-1.13 1.26-2.51 1.26-4s-.46-2.87-1.26-4h1.26c1.1 0 2.1.45 2.83 1.17z"
                      fill="#e6e9ed"/>
            </g>
            <g>
                <path d="m21.11 50.53.21 1.25h-.01c-.41.14-.85.22-1.31.22-.73 0-1.41-.2-2-.54-1.2-.69-2-1.98-2-3.46 0-.73.2-1.41.54-2 .69-1.2 1.98-2 3.46-2 1.15 0 2.19.49 2.93 1.27-1.61 1.42-2.19 3.42-1.82 5.26z"
                      fill="#ccd1d9"/>
            </g>
            <g>
                <path d="m44 52c-.46 0-.9-.08-1.31-.22h-.01l.21-1.25c.37-1.84-.21-3.83-1.81-5.26.73-.78 1.77-1.27 2.92-1.27 1.48 0 2.77.8 3.46 2 .34.59.54 1.27.54 2 0 1.48-.8 2.77-2 3.46-.59.34-1.27.54-2 .54z"
                      fill="#ccd1d9"/>
            </g>
            <g>
                <path d="m41.08 45.27c1.6 1.43 2.18 3.42 1.81 5.26l-.21 1.25-1.68 10.22h-18l-1.68-10.22-.21-1.25c-.37-1.84.21-3.84 1.82-5.26.57-.51 1.27-.94 2.1-1.27h2.97l.59.59c.9.9 2.13 1.41 3.41 1.41s2.51-.51 3.41-1.41l.59-.59h2.97c.84.33 1.54.76 2.11 1.27z"
                      fill="#ff826e"/>
            </g>
            <g>
                <path d="m36 26-.01.08c-.32-.06-.65-.08-.99-.08h-6c-.34 0-.67.02-.99.08l-.01-.08c0-1.1.45-2.1 1.17-2.83.73-.72 1.73-1.17 2.83-1.17 2.21 0 4 1.79 4 4z"
                      fill="#ff826e"/>
            </g>
            <g>
                <path d="m26 50h12v8h-12z" fill="#69d6f4"/>
            </g>
            <g>
                <path d="m42.69 51.78c.41.14.85.22 1.31.22.73 0 1.41-.2 2-.54v10.54h-5l1.68-10.22z" fill="#e6e9ed"/>
            </g>
            <g>
                <path d="m21.32 51.78 1.68 10.22h-5v-10.54c.59.34 1.27.54 2 .54.46 0 .9-.08 1.31-.22z" fill="#e6e9ed"/>
            </g>
            <g>
                <path d="m36 40v4l-.59.59c-.9.9-2.13 1.41-3.41 1.41s-2.51-.51-3.41-1.41l-.59-.59v-4l.01-.08c.32.06.65.08.99.08h6c.34 0 .67-.02.99-.08z"
                      fill="#e6e9ed"/>
            </g>
            <g>
                <path d="m40.74 29c.8 1.13 1.26 2.51 1.26 4s-.46 2.87-1.26 4c-.23.34-.5.66-.79.95-.02.02-.03.03-.05.05-1.04 1.02-2.39 1.72-3.91 1.92-.32.06-.65.08-.99.08h-6c-.34 0-.67-.02-.99-.08-1.52-.2-2.87-.9-3.91-1.92-.31-.31-.6-.64-.84-1-.8-1.13-1.26-2.51-1.26-4s.46-2.87 1.26-4c.23-.34.5-.66.79-.95 1.05-1.05 2.42-1.76 3.96-1.97.32-.06.65-.08.99-.08h6c.34 0 .67.02.99.08 1.97.27 3.67 1.36 4.75 2.92z"
                      fill="#e6e9ed"/>
            </g>
            <g>
                <circle cx="36" cy="33" fill="#969faa" r="2"/>
            </g>
            <g>
                <circle cx="28" cy="33" fill="#969faa" r="2"/>
            </g>
        </g>
        <g>
            <path d="m10.08 23h3.84l1.167-14h-6.174zm2.833-12-.833 10h-.16l-.833-10z"/>
            <path d="m12 25c-1.654 0-3 1.346-3 3s1.346 3 3 3 3-1.346 3-3-1.346-3-3-3zm0 4c-.552 0-1-.449-1-1s.448-1 1-1 1 .449 1 1-.448 1-1 1z"/>
            <path d="m36 36c1.654 0 3-1.346 3-3s-1.346-3-3-3-3 1.346-3 3 1.346 3 3 3zm0-4c.552 0 1 .449 1 1s-.448 1-1 1-1-.449-1-1 .448-1 1-1z"/>
            <path d="m28 36c1.654 0 3-1.346 3-3s-1.346-3-3-3-3 1.346-3 3 1.346 3 3 3zm0-4c.552 0 1 .449 1 1s-.448 1-1 1-1-.449-1-1 .448-1 1-1z"/>
            <path d="m25 59h14v-10h-14zm2-8h10v6h-10z"/>
            <path d="m58 1h-52c-2.757 0-5 2.243-5 5v36c0 2.757 2.243 5 5 5h9.101c-.066.323-.101.658-.101 1 0 1.627.793 3.061 2 3.974v11.026h30v-11.026c1.207-.914 2-2.348 2-3.974 0-.342-.035-.677-.101-1h9.101c2.757 0 5-2.243 5-5v-36c0-2.757-2.243-5-5-5zm-30.414 44 .293.293c1.085 1.085 2.587 1.707 4.121 1.707s3.036-.622 4.121-1.707l.293-.293h2.359c2.677 1.136 3.511 3.481 3.134 5.367l-1.755 10.633h-16.304l-1.761-10.666c-.371-1.853.463-4.198 3.14-5.334zm14.841-9.043c.366-.916.573-1.912.573-2.957s-.207-2.041-.573-2.957c1.451.21 2.573 1.449 2.573 2.957s-1.122 2.747-2.573 2.957zm4.573-2.957c0-2.757-2.243-5-5-5h-.765c-1.081-1.345-2.587-2.328-4.312-2.756-.368-2.397-2.425-4.244-4.923-4.244s-4.555 1.847-4.924 4.244c-1.725.428-3.231 1.411-4.312 2.756h-.764c-2.757 0-5 2.243-5 5 0 1.641.806 3.088 2.031 4h-12.031v-30h50v30h-12.031c1.225-.912 2.031-2.359 2.031-4zm-12.184-8h-5.631c.414-1.161 1.514-2 2.816-2s2.401.839 2.815 2zm-15.816 8c0-1.508 1.122-2.747 2.573-2.957-.366.916-.573 1.912-.573 2.957s.207 2.041.573 2.957c-1.451-.21-2.573-1.449-2.573-2.957zm4 0c0-3.309 2.691-6 6-6h6c3.309 0 6 2.691 6 6s-2.691 6-6 6h-6c-3.309 0-6-2.691-6-6zm12 8v2.586l-.293.293c-.713.712-1.699 1.121-2.707 1.121s-1.994-.409-2.707-1.121l-.293-.293v-2.586zm-14.88 9.693.048.293c-.056.003-.111.014-.168.014-1.654 0-3-1.346-3-3s1.346-3 3-3c.515 0 1 .141 1.435.381-1.296 1.623-1.655 3.616-1.315 5.312zm-1.12 2.206c.323.066.658.101 1 .101.167 0 .33-.025.494-.041l1.328 8.041h-2.822zm26 8.101h-2.822l1.327-8.041c.165.016.328.041.495.041.342 0 .677-.035 1-.101zm-1-10c-.057 0-.112-.011-.169-.014l.043-.259c.344-1.718-.014-3.719-1.31-5.345.436-.241.921-.382 1.436-.382 1.654 0 3 1.346 3 3s-1.346 3-3 3zm17-9c0 1.654-1.346 3-3 3h-10.026c-.914-1.207-2.348-2-3.974-2-1.069 0-2.103.354-2.955.979-.501-.346-1.065-.656-1.709-.909l-.177-.07h-2.159v-2.263c1.231-.319 2.346-.921 3.274-1.737h16.726c1.103 0 2-.897 2-2v-30c0-1.103-.897-2-2-2h-50c-1.103 0-2 .897-2 2v30c0 1.103.897 2 2 2h16.726c.927.816 2.043 1.418 3.274 1.737v2.263h-2.159l-.177.069c-.645.254-1.208.564-1.709.909-.852-.624-1.886-.978-2.955-.978-1.627 0-3.061.793-3.974 2h-10.026c-1.654 0-3-1.346-3-3v-36c0-1.654 1.346-3 3-3h52c1.654 0 3 1.346 3 3z"/>
            <path d="m49 41h2v2h-2z"/>
            <path d="m57 41h2v2h-2z"/>
            <path d="m53 41h2v2h-2z"/>
            <path d="m39 9h16v2h-16z"/>
            <path d="m19 9h16v2h-16z"/>
            <path d="m39 13h16v2h-16z"/>
            <path d="m33 13h2v2h-2z"/>
            <path d="m19 13h12v2h-12z"/>
            <path d="m53 17h2v2h-2z"/>
            <path d="m39 17h12v2h-12z"/>
            <path d="m19 17h16v2h-16z"/>
        </g>
    </g>
</svg>
