<?xml version="1.0"?>
<svg xmlns="http://www.w3.org/2000/svg" width="512" height="512" viewBox="0 0 512 512">
    <g>
        <g>
            <path d="M496,40V64H16V40A24.006,24.006,0,0,1,40,16H472A24.006,24.006,0,0,1,496,40Z" fill="#57565c"/>
            <path d="M496,64V472a24.006,24.006,0,0,1-24,24H40a24.006,24.006,0,0,1-24-24V64Z" fill="#ab2300"/>
            <g>
                <path d="M312,256v56a48,48,0,0,1-48,48h-8V256Z" fill="#ff9811"/>
                <path d="M256,256V360h-8a48,48,0,0,1-48-48V256Z" fill="#ffda44"/>
                <path d="M312,248v8H200v-8a48,48,0,0,1,48-48h16A48,48,0,0,1,312,248Z" fill="#2d2d30"/>
            </g>
        </g>
        <g>
            <path d="M472,8H40A32.03,32.03,0,0,0,8,40V472a32.03,32.03,0,0,0,32,32H472a32.03,32.03,0,0,0,32-32V40A32.03,32.03,0,0,0,472,8Zm16,464a16.021,16.021,0,0,1-16,16H40a16.021,16.021,0,0,1-16-16V72H488Zm0-416H24V40A16.021,16.021,0,0,1,40,24H472a16.021,16.021,0,0,1,16,16Z"/>
            <circle cx="39" cy="40" r="8"/>
            <circle cx="64" cy="40" r="8"/>
            <circle cx="88" cy="40" r="8"/>
            <path d="M320.01,256a8.021,8.021,0,0,0,3.57-.84l32-16A8.011,8.011,0,0,0,360,232V192a8,8,0,0,0-16,0v35.06l-24.66,12.33a55.422,55.422,0,0,0-5.86-17.57,9.954,9.954,0,0,0,.77-.82l12-15a8,8,0,1,0-12.5-10l-10.04,12.56A55.816,55.816,0,0,0,264,192H248a55.859,55.859,0,0,0-39.64,16.48L198.4,195.2a8,8,0,0,0-12.8,9.6l12,16a8.056,8.056,0,0,0,.92,1.01,55.563,55.563,0,0,0-5.86,17.58L168,227.06V192a8,8,0,0,0-16,0v40a8.011,8.011,0,0,0,4.42,7.16l32,16a8.021,8.021,0,0,0,3.57.84H192v16H168a8,8,0,0,0,0,16h24v24.01a8.05,8.05,0,0,0-3.58.83l-32,16A8.011,8.011,0,0,0,152,336v40a8,8,0,0,0,16,0V340.94l26.28-13.14A56.1,56.1,0,0,0,248,368h16a56.1,56.1,0,0,0,53.72-40.2L344,340.94V376a8,8,0,0,0,16,0V336a8.011,8.011,0,0,0-4.42-7.16l-32-16a8.05,8.05,0,0,0-3.58-.83V288h24a8,8,0,0,0,0-16H320V256ZM248,352a40.04,40.04,0,0,1-40-40V264h40Zm56-40a40.04,40.04,0,0,1-40,40V264h40Zm-96-64a40.04,40.04,0,0,1,40-40h16a40.04,40.04,0,0,1,40,40Z"/>
            <path d="M48,104v56a8,8,0,0,0,16,0V96a8,8,0,0,0-8-8H48a8,8,0,0,0,0,16Z"/>
            <path d="M80,168h32a8,8,0,0,0,8-8V96a8,8,0,0,0-8-8H80a8,8,0,0,0-8,8v64A8,8,0,0,0,80,168Zm8-64h16v48H88Z"/>
            <path d="M192,104v56a8,8,0,0,0,16,0V96a8,8,0,0,0-8-8h-8a8,8,0,0,0,0,16Z"/>
            <path d="M160,104v56a8,8,0,0,0,16,0V96a8,8,0,0,0-8-8h-8a8,8,0,0,0,0,16Z"/>
            <path d="M224,168h32a8,8,0,0,0,8-8V96a8,8,0,0,0-8-8H224a8,8,0,0,0-8,8v64A8,8,0,0,0,224,168Zm8-64h16v48H232Z"/>
            <path d="M424,104v56a8,8,0,0,0,16,0V96a8,8,0,0,0-8-8h-8a8,8,0,0,0,0,16Z"/>
            <path d="M464,88h-8a8,8,0,0,0,0,16v56a8,8,0,0,0,16,0V96A8,8,0,0,0,464,88Z"/>
            <path d="M368,168h32a8,8,0,0,0,8-8V96a8,8,0,0,0-8-8H368a8,8,0,0,0-8,8v64A8,8,0,0,0,368,168Zm8-64h16v48H376Z"/>
            <path d="M280,168h32a8,8,0,0,0,8-8V96a8,8,0,0,0-8-8H280a8,8,0,0,0-8,8v64A8,8,0,0,0,280,168Zm8-64h16v48H288Z"/>
            <path d="M376,192a8,8,0,0,0-8,8v64a8,8,0,0,0,8,8h32a8,8,0,0,0,8-8V200a8,8,0,0,0-8-8Zm24,64H384V208h16Z"/>
            <path d="M464,192H432a8,8,0,0,0-8,8v64a8,8,0,0,0,8,8h32a8,8,0,0,0,8-8V200A8,8,0,0,0,464,192Zm-8,64H440V208h16Z"/>
            <path d="M416,296a8,8,0,0,0-8-8H376a8,8,0,0,0-8,8v64a8,8,0,0,0,8,8h32a8,8,0,0,0,8-8Zm-16,56H384V304h16Z"/>
            <path d="M464,288H432a8,8,0,0,0-8,8v64a8,8,0,0,0,8,8h32a8,8,0,0,0,8-8V296A8,8,0,0,0,464,288Zm-8,64H440V304h16Z"/>
            <path d="M56,392H48a8,8,0,0,0,0,16v56a8,8,0,0,0,16,0V400A8,8,0,0,0,56,392Z"/>
            <path d="M136,392H104a8,8,0,0,0-8,8v64a8,8,0,0,0,8,8h32a8,8,0,0,0,8-8V400A8,8,0,0,0,136,392Zm-8,64H112V408h16Z"/>
            <path d="M200,392h-8a8,8,0,0,0,0,16v56a8,8,0,0,0,16,0V400A8,8,0,0,0,200,392Z"/>
            <path d="M168,392h-8a8,8,0,0,0,0,16v56a8,8,0,0,0,16,0V400A8,8,0,0,0,168,392Z"/>
            <path d="M80,288H48a8,8,0,0,0-8,8v64a8,8,0,0,0,8,8H80a8,8,0,0,0,8-8V296A8,8,0,0,0,80,288Zm-8,64H56V304H72Z"/>
            <path d="M112,368a8,8,0,0,0,8-8V296a8,8,0,0,0-8-8h-8a8,8,0,0,0,0,16v56A8,8,0,0,0,112,368Z"/>
            <path d="M256,392H224a8,8,0,0,0-8,8v64a8,8,0,0,0,8,8h32a8,8,0,0,0,8-8V400A8,8,0,0,0,256,392Zm-8,64H232V408h16Z"/>
            <path d="M400,392h-8a8,8,0,0,0,0,16v56a8,8,0,0,0,16,0V400A8,8,0,0,0,400,392Z"/>
            <path d="M432,392h-8a8,8,0,0,0,0,16v56a8,8,0,0,0,16,0V400A8,8,0,0,0,432,392Z"/>
            <path d="M368,392H336a8,8,0,0,0-8,8v64a8,8,0,0,0,8,8h32a8,8,0,0,0,8-8V400A8,8,0,0,0,368,392Zm-8,64H344V408h16Z"/>
            <path d="M312,392H280a8,8,0,0,0-8,8v64a8,8,0,0,0,8,8h32a8,8,0,0,0,8-8V400A8,8,0,0,0,312,392Zm-8,64H288V408h16Z"/>
            <path d="M144,120h-8a8,8,0,0,0,0,16h8a8,8,0,0,0,0-16Z"/>
            <path d="M336,136h8a8,8,0,0,0,0-16h-8a8,8,0,0,0,0,16Z"/>
            <path d="M464,424h-8a8,8,0,0,0,0,16h8a8,8,0,0,0,0-16Z"/>
            <path d="M48,208v56a8,8,0,0,0,16,0V200a8,8,0,0,0-8-8H48a8,8,0,0,0,0,16Z"/>
            <path d="M96,200a8,8,0,0,0-8-8H80a8,8,0,0,0,0,16v56a8,8,0,0,0,16,0Z"/>
            <path d="M112,224a8,8,0,0,0,0,16h8a8,8,0,0,0,0-16Z"/>
            <path d="M80,424H72a8,8,0,0,0,0,16h8a8,8,0,0,0,0-16Z"/>
        </g>
    </g>
</svg>
